<svg id="visual" viewBox="0 0 1920 1080" width="1920" height="1080" xmlns="http://www.w3.org/2000/svg" xmlns:xlink="http://www.w3.org/1999/xlink" version="1.1"><g stroke-width="1" stroke-linejoin="bevel"><path d="M938 531L915 607L999 588Z" fill="#04051c" stroke="#001d48"></path><path d="M1040 660L1045 580L999 588Z" fill="#05051d" stroke="#001d48"></path><path d="M999 588L1045 580L938 531Z" fill="#03041a" stroke="#001d48"></path><path d="M938 531L851 532L915 607Z" fill="#030419" stroke="#001d48"></path><path d="M989 701L1040 660L999 588Z" fill="#010216" stroke="#001d48"></path><path d="M971 714L989 701L915 607Z" fill="#04041c" stroke="#001d48"></path><path d="M915 607L989 701L999 588Z" fill="#03041b" stroke="#001d48"></path><path d="M851 532L826 535L915 607Z" fill="#03041a" stroke="#001d48"></path><path d="M769 688L971 714L915 607Z" fill="#05051e" stroke="#001d48"></path><path d="M971 397L864 448L938 531Z" fill="#030419" stroke="#001d48"></path><path d="M938 531L864 448L851 532Z" fill="#05051d" stroke="#001d48"></path><path d="M851 532L864 448L826 535Z" fill="#05051e" stroke="#001d48"></path><path d="M1011 384L971 397L938 531Z" fill="#020317" stroke="#001d48"></path><path d="M1045 580L1011 384L938 531Z" fill="#020317" stroke="#001d48"></path><path d="M1011 384L946 366L971 397Z" fill="#05051d" stroke="#001d48"></path><path d="M971 397L946 366L864 448Z" fill="#04051c" stroke="#001d48"></path><path d="M946 366L862 383L864 448Z" fill="#010216" stroke="#001d48"></path><path d="M714 418L731 553L826 535Z" fill="#010216" stroke="#001d48"></path><path d="M731 553L769 688L826 535Z" fill="#04041c" stroke="#001d48"></path><path d="M826 535L769 688L915 607Z" fill="#03041a" stroke="#001d48"></path><path d="M1209 539L1132 459L1045 580Z" fill="#05051e" stroke="#001d48"></path><path d="M1045 580L1132 459L1011 384Z" fill="#020317" stroke="#001d48"></path><path d="M714 418L826 535L864 448Z" fill="#05051d" stroke="#001d48"></path><path d="M971 714L1061 776L989 701Z" fill="#04051c" stroke="#001d48"></path><path d="M989 701L1061 776L1040 660Z" fill="#05051d" stroke="#001d48"></path><path d="M1040 660L1209 539L1045 580Z" fill="#05051d" stroke="#001d48"></path><path d="M1051 793L1061 776L971 714Z" fill="#020318" stroke="#001d48"></path><path d="M1132 459L1052 368L1011 384Z" fill="#010216" stroke="#001d48"></path><path d="M1011 384L984 295L946 366Z" fill="#03041b" stroke="#001d48"></path><path d="M963 870L1051 793L971 714Z" fill="#010215" stroke="#001d48"></path><path d="M1122 776L1040 660L1061 776Z" fill="#05051d" stroke="#001d48"></path><path d="M1250 583L1209 539L1040 660Z" fill="#010215" stroke="#001d48"></path><path d="M1132 459L1114 363L1052 368Z" fill="#04051c" stroke="#001d48"></path><path d="M787 256L796 369L836 233Z" fill="#020318" stroke="#001d48"></path><path d="M862 383L796 369L864 448Z" fill="#05051d" stroke="#001d48"></path><path d="M1051 793L1122 776L1061 776Z" fill="#05051e" stroke="#001d48"></path><path d="M697 726L749 750L769 688Z" fill="#010216" stroke="#001d48"></path><path d="M769 688L814 806L971 714Z" fill="#030419" stroke="#001d48"></path><path d="M749 750L814 806L769 688Z" fill="#020318" stroke="#001d48"></path><path d="M1182 413L1114 363L1132 459Z" fill="#03041b" stroke="#001d48"></path><path d="M1030 292L984 295L1011 384Z" fill="#020317" stroke="#001d48"></path><path d="M626 520L671 578L731 553Z" fill="#030419" stroke="#001d48"></path><path d="M731 553L667 651L769 688Z" fill="#030419" stroke="#001d48"></path><path d="M1219 441L1182 413L1132 459Z" fill="#020318" stroke="#001d48"></path><path d="M1030 292L1011 384L1052 368Z" fill="#020318" stroke="#001d48"></path><path d="M946 366L836 233L862 383Z" fill="#030419" stroke="#001d48"></path><path d="M796 369L714 418L864 448Z" fill="#04041c" stroke="#001d48"></path><path d="M899 872L963 870L971 714Z" fill="#03041b" stroke="#001d48"></path><path d="M1051 793L1028 870L1122 776Z" fill="#030419" stroke="#001d48"></path><path d="M671 578L667 651L731 553Z" fill="#030419" stroke="#001d48"></path><path d="M1073 246L1030 292L1114 363Z" fill="#04051c" stroke="#001d48"></path><path d="M1114 363L1030 292L1052 368Z" fill="#04051c" stroke="#001d48"></path><path d="M667 651L697 726L769 688Z" fill="#03041a" stroke="#001d48"></path><path d="M668 849L820 863L814 806Z" fill="#05051d" stroke="#001d48"></path><path d="M1122 776L1250 583L1040 660Z" fill="#030419" stroke="#001d48"></path><path d="M1209 539L1219 441L1132 459Z" fill="#03041a" stroke="#001d48"></path><path d="M1327 469L1219 441L1209 539Z" fill="#03041a" stroke="#001d48"></path><path d="M1228 271L1073 246L1114 363Z" fill="#020317" stroke="#001d48"></path><path d="M820 863L899 872L814 806Z" fill="#04041c" stroke="#001d48"></path><path d="M814 806L899 872L971 714Z" fill="#010216" stroke="#001d48"></path><path d="M983 965L1028 870L963 870Z" fill="#05051d" stroke="#001d48"></path><path d="M963 870L1028 870L1051 793Z" fill="#020317" stroke="#001d48"></path><path d="M671 578L644 594L667 651Z" fill="#020317" stroke="#001d48"></path><path d="M667 651L653 740L697 726Z" fill="#04051c" stroke="#001d48"></path><path d="M626 520L644 594L671 578Z" fill="#04041c" stroke="#001d48"></path><path d="M669 814L814 806L749 750Z" fill="#03041a" stroke="#001d48"></path><path d="M1028 870L1175 801L1122 776Z" fill="#010216" stroke="#001d48"></path><path d="M1122 776L1286 739L1250 583Z" fill="#020317" stroke="#001d48"></path><path d="M714 418L626 520L731 553Z" fill="#04051c" stroke="#001d48"></path><path d="M597 681L653 740L667 651Z" fill="#04041c" stroke="#001d48"></path><path d="M697 726L669 814L749 750Z" fill="#010216" stroke="#001d48"></path><path d="M597 681L667 651L644 594Z" fill="#010216" stroke="#001d48"></path><path d="M787 256L701 339L796 369Z" fill="#010216" stroke="#001d48"></path><path d="M796 369L701 339L714 418Z" fill="#04051c" stroke="#001d48"></path><path d="M714 418L618 445L626 520Z" fill="#020318" stroke="#001d48"></path><path d="M1286 739L1300 609L1250 583Z" fill="#010216" stroke="#001d48"></path><path d="M1250 583L1327 469L1209 539Z" fill="#03041a" stroke="#001d48"></path><path d="M1228 271L1114 363L1182 413Z" fill="#03041a" stroke="#001d48"></path><path d="M1030 292L1000 214L984 295Z" fill="#03041a" stroke="#001d48"></path><path d="M836 233L796 369L862 383Z" fill="#05051e" stroke="#001d48"></path><path d="M701 339L618 445L714 418Z" fill="#04041c" stroke="#001d48"></path><path d="M836 233L946 366L984 295Z" fill="#04041c" stroke="#001d48"></path><path d="M885 188L836 233L984 295Z" fill="#04051c" stroke="#001d48"></path><path d="M1073 246L1000 214L1030 292Z" fill="#010215" stroke="#001d48"></path><path d="M653 740L669 814L697 726Z" fill="#04051c" stroke="#001d48"></path><path d="M562 610L644 594L626 520Z" fill="#04041c" stroke="#001d48"></path><path d="M562 610L597 681L644 594Z" fill="#030419" stroke="#001d48"></path><path d="M653 740L524 734L669 814Z" fill="#010216" stroke="#001d48"></path><path d="M1175 801L1286 739L1122 776Z" fill="#020318" stroke="#001d48"></path><path d="M938 984L963 870L899 872Z" fill="#010215" stroke="#001d48"></path><path d="M938 984L983 965L963 870Z" fill="#05051e" stroke="#001d48"></path><path d="M1028 870L1078 953L1175 801Z" fill="#020318" stroke="#001d48"></path><path d="M1175 801L1294 862L1286 739Z" fill="#020317" stroke="#001d48"></path><path d="M863 958L899 872L820 863Z" fill="#020318" stroke="#001d48"></path><path d="M1300 609L1327 469L1250 583Z" fill="#010216" stroke="#001d48"></path><path d="M1219 441L1281 361L1182 413Z" fill="#030419" stroke="#001d48"></path><path d="M1344 418L1327 469L1412 472Z" fill="#020318" stroke="#001d48"></path><path d="M725 979L863 958L820 863Z" fill="#030419" stroke="#001d48"></path><path d="M441 464L562 610L626 520Z" fill="#020317" stroke="#001d48"></path><path d="M1318 422L1281 361L1219 441Z" fill="#03041a" stroke="#001d48"></path><path d="M532 872L668 849L669 814Z" fill="#03041a" stroke="#001d48"></path><path d="M669 814L668 849L814 806Z" fill="#030419" stroke="#001d48"></path><path d="M524 734L653 740L597 681Z" fill="#05051e" stroke="#001d48"></path><path d="M1000 214L885 188L984 295Z" fill="#010216" stroke="#001d48"></path><path d="M836 233L811 193L787 256Z" fill="#010215" stroke="#001d48"></path><path d="M983 965L1078 953L1028 870Z" fill="#020318" stroke="#001d48"></path><path d="M1327 469L1318 422L1219 441Z" fill="#010216" stroke="#001d48"></path><path d="M863 958L938 984L899 872Z" fill="#03041a" stroke="#001d48"></path><path d="M983 965L1057 989L1078 953Z" fill="#020317" stroke="#001d48"></path><path d="M885 188L811 193L836 233Z" fill="#010215" stroke="#001d48"></path><path d="M787 256L693 257L701 339Z" fill="#05051d" stroke="#001d48"></path><path d="M552 329L523 413L618 445Z" fill="#04051c" stroke="#001d48"></path><path d="M1270 227L1228 271L1313 268Z" fill="#010215" stroke="#001d48"></path><path d="M1281 361L1228 271L1182 413Z" fill="#030419" stroke="#001d48"></path><path d="M1073 246L1034 133L1000 214Z" fill="#010216" stroke="#001d48"></path><path d="M811 193L693 257L787 256Z" fill="#020318" stroke="#001d48"></path><path d="M685 959L686 896L561 951Z" fill="#03041a" stroke="#001d48"></path><path d="M668 849L686 896L820 863Z" fill="#05051d" stroke="#001d48"></path><path d="M885 188L904 160L811 193Z" fill="#03041b" stroke="#001d48"></path><path d="M1000 214L904 160L885 188Z" fill="#03041a" stroke="#001d48"></path><path d="M1034 133L904 160L1000 214Z" fill="#020318" stroke="#001d48"></path><path d="M1327 469L1344 418L1318 422Z" fill="#04041c" stroke="#001d48"></path><path d="M1318 422L1341 365L1281 361Z" fill="#05051d" stroke="#001d48"></path><path d="M1396 610L1327 469L1300 609Z" fill="#04051c" stroke="#001d48"></path><path d="M979 1025L1057 989L983 965Z" fill="#03041b" stroke="#001d48"></path><path d="M1229 945L1294 862L1175 801Z" fill="#010216" stroke="#001d48"></path><path d="M1344 418L1341 365L1318 422Z" fill="#05051d" stroke="#001d48"></path><path d="M1286 739L1396 610L1300 609Z" fill="#020317" stroke="#001d48"></path><path d="M1344 418L1472 328L1341 365Z" fill="#05051d" stroke="#001d48"></path><path d="M1229 945L1175 801L1078 953Z" fill="#010216" stroke="#001d48"></path><path d="M1286 739L1449 640L1396 610Z" fill="#05051d" stroke="#001d48"></path><path d="M991 1080L979 1025L906 1080Z" fill="#010215" stroke="#001d48"></path><path d="M938 984L979 1025L983 965Z" fill="#020317" stroke="#001d48"></path><path d="M979 1025L938 984L906 1080Z" fill="#010216" stroke="#001d48"></path><path d="M1174 98L1034 133L1073 246Z" fill="#020318" stroke="#001d48"></path><path d="M562 610L524 734L597 681Z" fill="#05051e" stroke="#001d48"></path><path d="M1270 227L1225 209L1228 271Z" fill="#020317" stroke="#001d48"></path><path d="M1228 271L1225 209L1073 246Z" fill="#020318" stroke="#001d48"></path><path d="M552 329L618 445L701 339Z" fill="#010216" stroke="#001d48"></path><path d="M618 445L523 413L626 520Z" fill="#03041a" stroke="#001d48"></path><path d="M562 610L453 674L524 734Z" fill="#04041c" stroke="#001d48"></path><path d="M1180 1042L1229 945L1078 953Z" fill="#04051c" stroke="#001d48"></path><path d="M1180 1042L1078 953L1057 989Z" fill="#03041a" stroke="#001d48"></path><path d="M685 959L725 979L686 896Z" fill="#010215" stroke="#001d48"></path><path d="M686 896L725 979L820 863Z" fill="#020318" stroke="#001d48"></path><path d="M561 951L686 896L668 849Z" fill="#05051d" stroke="#001d48"></path><path d="M693 257L552 329L701 339Z" fill="#020317" stroke="#001d48"></path><path d="M603 185L552 329L693 257Z" fill="#03041a" stroke="#001d48"></path><path d="M1396 610L1412 472L1327 469Z" fill="#04051c" stroke="#001d48"></path><path d="M1313 268L1228 271L1281 361Z" fill="#03041b" stroke="#001d48"></path><path d="M1313 268L1281 361L1341 365Z" fill="#010216" stroke="#001d48"></path><path d="M1472 328L1313 268L1341 365Z" fill="#03041b" stroke="#001d48"></path><path d="M1449 640L1438 579L1396 610Z" fill="#03041a" stroke="#001d48"></path><path d="M1396 610L1438 579L1412 472Z" fill="#010216" stroke="#001d48"></path><path d="M1229 945L1329 898L1294 862Z" fill="#020317" stroke="#001d48"></path><path d="M1294 862L1405 805L1286 739Z" fill="#04051c" stroke="#001d48"></path><path d="M1405 805L1449 640L1286 739Z" fill="#010215" stroke="#001d48"></path><path d="M906 1080L938 984L863 958Z" fill="#04051c" stroke="#001d48"></path><path d="M979 1025L1011 1080L1057 989Z" fill="#04051c" stroke="#001d48"></path><path d="M1251 1036L1370 923L1329 898Z" fill="#020318" stroke="#001d48"></path><path d="M773 1080L863 958L725 979Z" fill="#05051d" stroke="#001d48"></path><path d="M773 1080L906 1080L863 958Z" fill="#020317" stroke="#001d48"></path><path d="M1345 149L1235 157L1270 227Z" fill="#010216" stroke="#001d48"></path><path d="M1270 227L1235 157L1225 209Z" fill="#04051c" stroke="#001d48"></path><path d="M1225 209L1174 98L1073 246Z" fill="#020317" stroke="#001d48"></path><path d="M991 1080L1011 1080L979 1025Z" fill="#05051d" stroke="#001d48"></path><path d="M1329 898L1405 805L1294 862Z" fill="#05051e" stroke="#001d48"></path><path d="M457 713L491 790L524 734Z" fill="#010216" stroke="#001d48"></path><path d="M524 734L532 872L669 814Z" fill="#020317" stroke="#001d48"></path><path d="M441 464L453 674L562 610Z" fill="#020318" stroke="#001d48"></path><path d="M491 790L532 872L524 734Z" fill="#010216" stroke="#001d48"></path><path d="M453 674L457 713L524 734Z" fill="#05051e" stroke="#001d48"></path><path d="M1011 1080L1180 1042L1057 989Z" fill="#03041b" stroke="#001d48"></path><path d="M354 361L441 464L523 413Z" fill="#030419" stroke="#001d48"></path><path d="M523 413L441 464L626 520Z" fill="#05051e" stroke="#001d48"></path><path d="M691 69L693 257L811 193Z" fill="#05051e" stroke="#001d48"></path><path d="M691 69L603 185L693 257Z" fill="#05051d" stroke="#001d48"></path><path d="M552 329L470 254L523 413Z" fill="#05051d" stroke="#001d48"></path><path d="M840 0L811 193L904 160Z" fill="#010216" stroke="#001d48"></path><path d="M1235 157L1174 98L1225 209Z" fill="#05051e" stroke="#001d48"></path><path d="M1034 133L923 46L904 160Z" fill="#05051e" stroke="#001d48"></path><path d="M1003 0L923 46L1034 133Z" fill="#010215" stroke="#001d48"></path><path d="M743 1080L773 1080L725 979Z" fill="#030419" stroke="#001d48"></path><path d="M743 1080L725 979L597 1080Z" fill="#010216" stroke="#001d48"></path><path d="M559 129L581 184L603 185Z" fill="#020317" stroke="#001d48"></path><path d="M603 185L542 215L552 329Z" fill="#010215" stroke="#001d48"></path><path d="M457 893L561 951L532 872Z" fill="#03041a" stroke="#001d48"></path><path d="M532 872L561 951L668 849Z" fill="#04041c" stroke="#001d48"></path><path d="M457 893L532 872L491 790Z" fill="#03041a" stroke="#001d48"></path><path d="M1518 738L1491 636L1449 640Z" fill="#04041c" stroke="#001d48"></path><path d="M1449 640L1491 636L1438 579Z" fill="#010215" stroke="#001d48"></path><path d="M1438 579L1492 510L1412 472Z" fill="#05051d" stroke="#001d48"></path><path d="M1251 1036L1329 898L1229 945Z" fill="#05051d" stroke="#001d48"></path><path d="M1329 898L1370 923L1405 805Z" fill="#05051d" stroke="#001d48"></path><path d="M1405 805L1476 795L1449 640Z" fill="#010216" stroke="#001d48"></path><path d="M1541 575L1492 510L1438 579Z" fill="#010215" stroke="#001d48"></path><path d="M1412 472L1472 328L1344 418Z" fill="#04041c" stroke="#001d48"></path><path d="M1313 268L1345 149L1270 227Z" fill="#020318" stroke="#001d48"></path><path d="M597 1080L725 979L685 959Z" fill="#030419" stroke="#001d48"></path><path d="M581 184L542 215L603 185Z" fill="#010215" stroke="#001d48"></path><path d="M1250 1080L1251 1036L1180 1042Z" fill="#05051d" stroke="#001d48"></path><path d="M1180 1042L1251 1036L1229 945Z" fill="#020317" stroke="#001d48"></path><path d="M1251 1036L1383 935L1370 923Z" fill="#010216" stroke="#001d48"></path><path d="M1370 923L1383 935L1405 805Z" fill="#04041c" stroke="#001d48"></path><path d="M1496 903L1476 795L1405 805Z" fill="#04041c" stroke="#001d48"></path><path d="M840 0L691 69L811 193Z" fill="#030419" stroke="#001d48"></path><path d="M438 150L470 254L542 215Z" fill="#04051c" stroke="#001d48"></path><path d="M1540 364L1472 328L1412 472Z" fill="#03041b" stroke="#001d48"></path><path d="M1235 157L1263 66L1174 98Z" fill="#010215" stroke="#001d48"></path><path d="M1067 0L1003 0L1034 133Z" fill="#05051d" stroke="#001d48"></path><path d="M923 46L840 0L904 160Z" fill="#010216" stroke="#001d48"></path><path d="M558 129L542 215L581 184Z" fill="#020317" stroke="#001d48"></path><path d="M542 215L470 254L552 329Z" fill="#010215" stroke="#001d48"></path><path d="M1451 183L1345 149L1313 268Z" fill="#05051d" stroke="#001d48"></path><path d="M1174 98L1067 0L1034 133Z" fill="#05051e" stroke="#001d48"></path><path d="M1011 1080L1250 1080L1180 1042Z" fill="#04041c" stroke="#001d48"></path><path d="M1251 1036L1415 1009L1383 935Z" fill="#04041c" stroke="#001d48"></path><path d="M436 927L457 893L357 942Z" fill="#04041c" stroke="#001d48"></path><path d="M309 819L457 893L491 790Z" fill="#020317" stroke="#001d48"></path><path d="M561 951L597 1080L685 959Z" fill="#03041b" stroke="#001d48"></path><path d="M491 790L457 713L309 819Z" fill="#03041b" stroke="#001d48"></path><path d="M1003 0L840 0L923 46Z" fill="#010215" stroke="#001d48"></path><path d="M1160 0L1067 0L1174 98Z" fill="#03041a" stroke="#001d48"></path><path d="M1588 812L1518 738L1476 795Z" fill="#010215" stroke="#001d48"></path><path d="M1476 795L1518 738L1449 640Z" fill="#020318" stroke="#001d48"></path><path d="M1491 636L1541 575L1438 579Z" fill="#05051e" stroke="#001d48"></path><path d="M1492 510L1540 364L1412 472Z" fill="#05051e" stroke="#001d48"></path><path d="M1645 615L1541 575L1491 636Z" fill="#010216" stroke="#001d48"></path><path d="M558 129L559 129L555 124Z" fill="#020318" stroke="#001d48"></path><path d="M576 87L559 129L603 185Z" fill="#03041a" stroke="#001d48"></path><path d="M555 124L559 129L576 87Z" fill="#03041a" stroke="#001d48"></path><path d="M559 129L558 129L581 184Z" fill="#030419" stroke="#001d48"></path><path d="M1345 149L1263 66L1235 157Z" fill="#03041b" stroke="#001d48"></path><path d="M576 87L603 185L691 69Z" fill="#04041c" stroke="#001d48"></path><path d="M480 102L438 150L542 215Z" fill="#04041c" stroke="#001d48"></path><path d="M1250 1080L1288 1080L1251 1036Z" fill="#03041a" stroke="#001d48"></path><path d="M1383 935L1496 903L1405 805Z" fill="#010216" stroke="#001d48"></path><path d="M1263 66L1221 33L1174 98Z" fill="#03041a" stroke="#001d48"></path><path d="M1221 33L1160 0L1174 98Z" fill="#030419" stroke="#001d48"></path><path d="M547 1084L597 1080L541 1080Z" fill="#03041b" stroke="#001d48"></path><path d="M628 0L576 87L691 69Z" fill="#05051e" stroke="#001d48"></path><path d="M378 254L354 361L470 254Z" fill="#010216" stroke="#001d48"></path><path d="M840 0L731 0L691 69Z" fill="#04051c" stroke="#001d48"></path><path d="M332 685L457 713L453 674Z" fill="#020318" stroke="#001d48"></path><path d="M457 893L436 927L561 951Z" fill="#030419" stroke="#001d48"></path><path d="M1664 454L1540 364L1492 510Z" fill="#010216" stroke="#001d48"></path><path d="M1472 328L1451 183L1313 268Z" fill="#05051d" stroke="#001d48"></path><path d="M1347 0L1199 0L1221 33Z" fill="#03041b" stroke="#001d48"></path><path d="M1221 33L1199 0L1160 0Z" fill="#030419" stroke="#001d48"></path><path d="M1347 0L1221 33L1263 66Z" fill="#030419" stroke="#001d48"></path><path d="M319 639L453 674L441 464Z" fill="#05051d" stroke="#001d48"></path><path d="M319 639L332 685L453 674Z" fill="#03041b" stroke="#001d48"></path><path d="M1288 1080L1415 1009L1251 1036Z" fill="#010215" stroke="#001d48"></path><path d="M1473 981L1496 903L1383 935Z" fill="#030419" stroke="#001d48"></path><path d="M1645 615L1626 533L1541 575Z" fill="#04041c" stroke="#001d48"></path><path d="M1526 183L1451 183L1472 328Z" fill="#020318" stroke="#001d48"></path><path d="M1345 149L1347 0L1263 66Z" fill="#04051c" stroke="#001d48"></path><path d="M378 254L470 254L438 150Z" fill="#020318" stroke="#001d48"></path><path d="M470 254L354 361L523 413Z" fill="#04051c" stroke="#001d48"></path><path d="M284 505L319 639L441 464Z" fill="#020317" stroke="#001d48"></path><path d="M541 1080L597 1080L561 951Z" fill="#04041c" stroke="#001d48"></path><path d="M597 1080L547 1084L743 1080Z" fill="#010216" stroke="#001d48"></path><path d="M743 1080L547 1084L773 1080Z" fill="#03041a" stroke="#001d48"></path><path d="M773 1080L547 1084L906 1080Z" fill="#030419" stroke="#001d48"></path><path d="M906 1080L547 1084L991 1080Z" fill="#010215" stroke="#001d48"></path><path d="M991 1080L547 1084L1011 1080Z" fill="#05051e" stroke="#001d48"></path><path d="M1011 1080L547 1084L1250 1080Z" fill="#010215" stroke="#001d48"></path><path d="M1250 1080L547 1084L1288 1080Z" fill="#04041c" stroke="#001d48"></path><path d="M436 927L541 1080L561 951Z" fill="#010215" stroke="#001d48"></path><path d="M354 361L312 441L441 464Z" fill="#010215" stroke="#001d48"></path><path d="M286 723L307 705L225 677Z" fill="#020317" stroke="#001d48"></path><path d="M319 639L307 705L332 685Z" fill="#05051e" stroke="#001d48"></path><path d="M332 685L309 819L457 713Z" fill="#03041a" stroke="#001d48"></path><path d="M542 215L558 129L480 102Z" fill="#03041a" stroke="#001d48"></path><path d="M192 328L222 443L312 441Z" fill="#04041c" stroke="#001d48"></path><path d="M1462 1080L1473 981L1415 1009Z" fill="#020318" stroke="#001d48"></path><path d="M1415 1009L1473 981L1383 935Z" fill="#03041a" stroke="#001d48"></path><path d="M731 0L628 0L691 69Z" fill="#010215" stroke="#001d48"></path><path d="M480 102L558 129L555 124Z" fill="#010216" stroke="#001d48"></path><path d="M1547 1032L1546 883L1496 903Z" fill="#030419" stroke="#001d48"></path><path d="M1496 903L1546 883L1476 795Z" fill="#05051e" stroke="#001d48"></path><path d="M1541 575L1626 533L1492 510Z" fill="#010216" stroke="#001d48"></path><path d="M480 102L555 124L576 87Z" fill="#05051d" stroke="#001d48"></path><path d="M595 0L480 102L576 87Z" fill="#03041a" stroke="#001d48"></path><path d="M267 508L284 505L266 482Z" fill="#010215" stroke="#001d48"></path><path d="M312 441L284 505L441 464Z" fill="#03041a" stroke="#001d48"></path><path d="M1645 615L1491 636L1518 738Z" fill="#05051d" stroke="#001d48"></path><path d="M1603 322L1526 183L1472 328Z" fill="#05051d" stroke="#001d48"></path><path d="M1546 883L1588 812L1476 795Z" fill="#04051c" stroke="#001d48"></path><path d="M628 0L595 0L576 87Z" fill="#020317" stroke="#001d48"></path><path d="M225 677L307 705L319 639Z" fill="#03041b" stroke="#001d48"></path><path d="M307 705L309 819L332 685Z" fill="#030419" stroke="#001d48"></path><path d="M436 927L411 1080L541 1080Z" fill="#05051e" stroke="#001d48"></path><path d="M286 723L309 819L307 705Z" fill="#04041c" stroke="#001d48"></path><path d="M359 163L349 246L378 254Z" fill="#030419" stroke="#001d48"></path><path d="M378 254L349 246L354 361Z" fill="#05051d" stroke="#001d48"></path><path d="M359 163L378 254L438 150Z" fill="#03041b" stroke="#001d48"></path><path d="M1288 1080L1422 1080L1415 1009Z" fill="#05051d" stroke="#001d48"></path><path d="M1473 981L1547 1032L1496 903Z" fill="#020318" stroke="#001d48"></path><path d="M547 1084L1422 1080L1288 1080Z" fill="#010216" stroke="#001d48"></path><path d="M266 482L284 505L312 441Z" fill="#05051e" stroke="#001d48"></path><path d="M284 505L267 508L319 639Z" fill="#03041b" stroke="#001d48"></path><path d="M222 443L266 482L312 441Z" fill="#03041b" stroke="#001d48"></path><path d="M1670 662L1645 615L1518 738Z" fill="#04051c" stroke="#001d48"></path><path d="M1603 322L1472 328L1540 364Z" fill="#010215" stroke="#001d48"></path><path d="M1415 -4L1347 0L1345 149Z" fill="#030419" stroke="#001d48"></path><path d="M309 819L357 942L457 893Z" fill="#04041c" stroke="#001d48"></path><path d="M1664 454L1492 510L1626 533Z" fill="#05051d" stroke="#001d48"></path><path d="M1664 454L1603 322L1540 364Z" fill="#04051c" stroke="#001d48"></path><path d="M1472 97L1345 149L1451 183Z" fill="#04041c" stroke="#001d48"></path><path d="M1526 183L1472 97L1451 183Z" fill="#030419" stroke="#001d48"></path><path d="M286 723L282 808L309 819Z" fill="#020317" stroke="#001d48"></path><path d="M309 819L285 833L357 942Z" fill="#030419" stroke="#001d48"></path><path d="M141 719L282 808L286 723Z" fill="#03041b" stroke="#001d48"></path><path d="M282 808L285 833L309 819Z" fill="#04051c" stroke="#001d48"></path><path d="M547 1084L1462 1080L1422 1080Z" fill="#020317" stroke="#001d48"></path><path d="M1422 1080L1462 1080L1415 1009Z" fill="#010216" stroke="#001d48"></path><path d="M1681 816L1658 794L1588 812Z" fill="#04041c" stroke="#001d48"></path><path d="M1695 533L1664 454L1626 533Z" fill="#05051e" stroke="#001d48"></path><path d="M1658 794L1670 662L1518 738Z" fill="#010216" stroke="#001d48"></path><path d="M1645 615L1695 533L1626 533Z" fill="#010216" stroke="#001d48"></path><path d="M1658 794L1518 738L1588 812Z" fill="#03041b" stroke="#001d48"></path><path d="M358 0L359 163L438 150Z" fill="#030419" stroke="#001d48"></path><path d="M192 328L312 441L354 361Z" fill="#010215" stroke="#001d48"></path><path d="M419 0L438 150L480 102Z" fill="#020318" stroke="#001d48"></path><path d="M190 511L225 609L267 508Z" fill="#05051d" stroke="#001d48"></path><path d="M267 508L225 609L319 639Z" fill="#020317" stroke="#001d48"></path><path d="M282 808L123 878L285 833Z" fill="#010216" stroke="#001d48"></path><path d="M190 511L267 508L266 482Z" fill="#020318" stroke="#001d48"></path><path d="M225 609L225 677L319 639Z" fill="#05051e" stroke="#001d48"></path><path d="M1681 816L1588 812L1672 927Z" fill="#020317" stroke="#001d48"></path><path d="M541 1080L411 1080L547 1084Z" fill="#03041a" stroke="#001d48"></path><path d="M357 942L411 1080L436 927Z" fill="#05051e" stroke="#001d48"></path><path d="M368 1074L411 1080L357 942Z" fill="#020317" stroke="#001d48"></path><path d="M1692 259L1623 266L1603 322Z" fill="#020317" stroke="#001d48"></path><path d="M1603 322L1623 266L1526 183Z" fill="#03041b" stroke="#001d48"></path><path d="M1508 0L1464 0L1472 97Z" fill="#03041a" stroke="#001d48"></path><path d="M547 1084L1497 1080L1462 1080Z" fill="#030419" stroke="#001d48"></path><path d="M1462 1080L1497 1080L1473 981Z" fill="#04051c" stroke="#001d48"></path><path d="M162 465L222 443L180 368Z" fill="#05051d" stroke="#001d48"></path><path d="M118 628L141 719L225 677Z" fill="#030419" stroke="#001d48"></path><path d="M1464 0L1415 -4L1472 97Z" fill="#020318" stroke="#001d48"></path><path d="M1472 97L1415 -4L1345 149Z" fill="#030419" stroke="#001d48"></path><path d="M1347 0L1415 -4L1199 0Z" fill="#04051c" stroke="#001d48"></path><path d="M1199 0L1415 -4L1160 0Z" fill="#05051e" stroke="#001d48"></path><path d="M1160 0L1415 -4L1067 0Z" fill="#03041b" stroke="#001d48"></path><path d="M1067 0L1415 -4L1003 0Z" fill="#03041b" stroke="#001d48"></path><path d="M1003 0L1415 -4L840 0Z" fill="#04051c" stroke="#001d48"></path><path d="M840 0L220 -7L731 0Z" fill="#03041b" stroke="#001d48"></path><path d="M731 0L220 -7L628 0Z" fill="#020318" stroke="#001d48"></path><path d="M628 0L220 -7L595 0Z" fill="#020318" stroke="#001d48"></path><path d="M1758 539L1645 615L1670 662Z" fill="#04051c" stroke="#001d48"></path><path d="M1758 539L1695 533L1645 615Z" fill="#03041a" stroke="#001d48"></path><path d="M1664 454L1690 437L1603 322Z" fill="#010215" stroke="#001d48"></path><path d="M1497 1080L1547 1032L1473 981Z" fill="#03041a" stroke="#001d48"></path><path d="M1695 533L1690 437L1664 454Z" fill="#030419" stroke="#001d48"></path><path d="M222 443L190 511L266 482Z" fill="#04041c" stroke="#001d48"></path><path d="M1672 927L1588 812L1546 883Z" fill="#05051e" stroke="#001d48"></path><path d="M1658 794L1732 808L1670 662Z" fill="#04051c" stroke="#001d48"></path><path d="M123 878L357 942L285 833Z" fill="#010215" stroke="#001d48"></path><path d="M198 1080L368 1074L357 942Z" fill="#03041a" stroke="#001d48"></path><path d="M1623 75L1472 97L1526 183Z" fill="#020318" stroke="#001d48"></path><path d="M1623 266L1623 182L1526 183Z" fill="#010216" stroke="#001d48"></path><path d="M1692 259L1623 182L1623 266Z" fill="#010215" stroke="#001d48"></path><path d="M220 -7L419 0L595 0Z" fill="#05051e" stroke="#001d48"></path><path d="M595 0L419 0L480 102Z" fill="#03041b" stroke="#001d48"></path><path d="M192 328L354 361L349 246Z" fill="#03041a" stroke="#001d48"></path><path d="M222 443L162 465L190 511Z" fill="#03041b" stroke="#001d48"></path><path d="M192 328L349 246L194 238Z" fill="#03041a" stroke="#001d48"></path><path d="M190 511L132 537L225 609Z" fill="#030419" stroke="#001d48"></path><path d="M194 238L349 246L359 163Z" fill="#04041c" stroke="#001d48"></path><path d="M192 328L180 368L222 443Z" fill="#020318" stroke="#001d48"></path><path d="M1547 1032L1672 927L1546 883Z" fill="#020317" stroke="#001d48"></path><path d="M1711 903L1672 927L1726 1007Z" fill="#010215" stroke="#001d48"></path><path d="M1464 0L1508 0L1415 -4Z" fill="#04041c" stroke="#001d48"></path><path d="M1623 75L1508 0L1472 97Z" fill="#030419" stroke="#001d48"></path><path d="M1754 293L1603 322L1690 437Z" fill="#05051d" stroke="#001d48"></path><path d="M1754 293L1692 259L1603 322Z" fill="#020318" stroke="#001d48"></path><path d="M1623 182L1623 75L1526 183Z" fill="#05051d" stroke="#001d48"></path><path d="M1803 641L1758 539L1670 662Z" fill="#020317" stroke="#001d48"></path><path d="M1695 533L1758 539L1690 437Z" fill="#030419" stroke="#001d48"></path><path d="M1732 808L1658 794L1681 816Z" fill="#04051c" stroke="#001d48"></path><path d="M1711 903L1732 808L1681 816Z" fill="#010216" stroke="#001d48"></path><path d="M118 628L132 537L0 548Z" fill="#05051d" stroke="#001d48"></path><path d="M162 465L132 537L190 511Z" fill="#03041a" stroke="#001d48"></path><path d="M225 677L141 719L286 723Z" fill="#04051c" stroke="#001d48"></path><path d="M118 628L225 677L225 609Z" fill="#010215" stroke="#001d48"></path><path d="M1640 1080L1672 927L1547 1032Z" fill="#010216" stroke="#001d48"></path><path d="M1672 927L1711 903L1681 816Z" fill="#010216" stroke="#001d48"></path><path d="M220 -7L358 0L419 0Z" fill="#03041a" stroke="#001d48"></path><path d="M419 0L358 0L438 150Z" fill="#020317" stroke="#001d48"></path><path d="M285 82L194 238L359 163Z" fill="#05051d" stroke="#001d48"></path><path d="M192 328L153 314L180 368Z" fill="#04051c" stroke="#001d48"></path><path d="M180 368L0 448L162 465Z" fill="#010215" stroke="#001d48"></path><path d="M358 0L285 82L359 163Z" fill="#020318" stroke="#001d48"></path><path d="M132 537L118 628L225 609Z" fill="#020317" stroke="#001d48"></path><path d="M1677 81L1623 75L1623 182Z" fill="#05051e" stroke="#001d48"></path><path d="M194 238L153 314L192 328Z" fill="#05051e" stroke="#001d48"></path><path d="M0 640L38 680L118 628Z" fill="#020317" stroke="#001d48"></path><path d="M1711 903L1774 785L1732 808Z" fill="#010216" stroke="#001d48"></path><path d="M1732 808L1774 785L1670 662Z" fill="#020317" stroke="#001d48"></path><path d="M1920 415L1754 293L1690 437Z" fill="#04051c" stroke="#001d48"></path><path d="M1692 259L1677 81L1623 182Z" fill="#04041c" stroke="#001d48"></path><path d="M1887 497L1690 437L1758 539Z" fill="#03041a" stroke="#001d48"></path><path d="M547 1084L1640 1080L1497 1080Z" fill="#05051d" stroke="#001d48"></path><path d="M1497 1080L1640 1080L1547 1032Z" fill="#030419" stroke="#001d48"></path><path d="M1711 903L1920 857L1774 785Z" fill="#010215" stroke="#001d48"></path><path d="M1774 785L1803 641L1670 662Z" fill="#04041c" stroke="#001d48"></path><path d="M547 1084L1665 1080L1640 1080Z" fill="#010215" stroke="#001d48"></path><path d="M1640 1080L1726 1007L1672 927Z" fill="#04051c" stroke="#001d48"></path><path d="M1677 81L1610 0L1623 75Z" fill="#04051c" stroke="#001d48"></path><path d="M1623 75L1610 0L1508 0Z" fill="#03041b" stroke="#001d48"></path><path d="M1508 0L1610 0L1415 -4Z" fill="#020318" stroke="#001d48"></path><path d="M285 82L165 169L194 238Z" fill="#020317" stroke="#001d48"></path><path d="M194 238L125 255L153 314Z" fill="#05051d" stroke="#001d48"></path><path d="M255 0L234 73L285 82Z" fill="#030419" stroke="#001d48"></path><path d="M1751 45L1677 81L1816 102Z" fill="#04041c" stroke="#001d48"></path><path d="M141 719L123 878L282 808Z" fill="#05051d" stroke="#001d48"></path><path d="M21 717L123 878L141 719Z" fill="#05051e" stroke="#001d48"></path><path d="M1665 1080L1726 1007L1640 1080Z" fill="#010216" stroke="#001d48"></path><path d="M234 73L165 169L285 82Z" fill="#04051c" stroke="#001d48"></path><path d="M0 548L132 537L0 448Z" fill="#010215" stroke="#001d48"></path><path d="M165 169L125 255L194 238Z" fill="#030419" stroke="#001d48"></path><path d="M1665 1080L1724 1031L1726 1007Z" fill="#03041b" stroke="#001d48"></path><path d="M1726 1007L1783 994L1711 903Z" fill="#020317" stroke="#001d48"></path><path d="M234 73L113 0L165 169Z" fill="#030419" stroke="#001d48"></path><path d="M358 0L255 0L285 82Z" fill="#010216" stroke="#001d48"></path><path d="M220 -7L255 0L358 0Z" fill="#020317" stroke="#001d48"></path><path d="M123 878L198 1080L357 942Z" fill="#05051d" stroke="#001d48"></path><path d="M368 1074L198 1080L411 1080Z" fill="#010215" stroke="#001d48"></path><path d="M411 1080L198 1080L547 1084Z" fill="#04041c" stroke="#001d48"></path><path d="M0 605L118 628L0 548Z" fill="#020317" stroke="#001d48"></path><path d="M118 628L38 680L141 719Z" fill="#03041b" stroke="#001d48"></path><path d="M123 878L93 995L198 1080Z" fill="#04051c" stroke="#001d48"></path><path d="M1724 1031L1783 994L1726 1007Z" fill="#05051d" stroke="#001d48"></path><path d="M1920 583L1883 524L1803 641Z" fill="#030419" stroke="#001d48"></path><path d="M1818 1080L1783 994L1724 1031Z" fill="#020317" stroke="#001d48"></path><path d="M1889 681L1803 641L1889 726Z" fill="#030419" stroke="#001d48"></path><path d="M1803 641L1883 524L1758 539Z" fill="#030419" stroke="#001d48"></path><path d="M1754 293L1855 196L1692 259Z" fill="#03041b" stroke="#001d48"></path><path d="M0 261L0 309L125 255Z" fill="#020318" stroke="#001d48"></path><path d="M255 0L220 -7L234 73Z" fill="#05051e" stroke="#001d48"></path><path d="M1415 -4L220 -7L840 0Z" fill="#010215" stroke="#001d48"></path><path d="M1883 524L1887 497L1758 539Z" fill="#010216" stroke="#001d48"></path><path d="M0 640L21 717L38 680Z" fill="#020318" stroke="#001d48"></path><path d="M38 680L21 717L141 719Z" fill="#010216" stroke="#001d48"></path><path d="M1889 726L1803 641L1774 785Z" fill="#04041c" stroke="#001d48"></path><path d="M1883 524L1920 525L1887 497Z" fill="#04051c" stroke="#001d48"></path><path d="M1920 415L1849 272L1754 293Z" fill="#030419" stroke="#001d48"></path><path d="M1677 81L1751 45L1610 0Z" fill="#05051e" stroke="#001d48"></path><path d="M1920 779L1889 726L1774 785Z" fill="#010216" stroke="#001d48"></path><path d="M132 537L162 465L0 448Z" fill="#04051c" stroke="#001d48"></path><path d="M0 448L153 314L0 309Z" fill="#020317" stroke="#001d48"></path><path d="M0 448L180 368L153 314Z" fill="#03041a" stroke="#001d48"></path><path d="M220 -7L192 0L234 73Z" fill="#010216" stroke="#001d48"></path><path d="M0 605L0 640L118 628Z" fill="#05051d" stroke="#001d48"></path><path d="M0 733L123 878L21 717Z" fill="#05051d" stroke="#001d48"></path><path d="M0 944L93 995L123 878Z" fill="#030419" stroke="#001d48"></path><path d="M1816 102L1677 81L1692 259Z" fill="#05051e" stroke="#001d48"></path><path d="M0 309L153 314L125 255Z" fill="#04051c" stroke="#001d48"></path><path d="M0 640L0 733L21 717Z" fill="#04041c" stroke="#001d48"></path><path d="M1920 643L1920 583L1803 641Z" fill="#05051d" stroke="#001d48"></path><path d="M1887 497L1920 415L1690 437Z" fill="#05051d" stroke="#001d48"></path><path d="M1920 643L1803 641L1889 681Z" fill="#04041c" stroke="#001d48"></path><path d="M1920 583L1920 525L1883 524Z" fill="#020317" stroke="#001d48"></path><path d="M1889 726L1920 643L1889 681Z" fill="#04051c" stroke="#001d48"></path><path d="M85 1036L120 1080L93 995Z" fill="#05051d" stroke="#001d48"></path><path d="M93 995L120 1080L198 1080Z" fill="#020318" stroke="#001d48"></path><path d="M198 1080L120 1080L547 1084Z" fill="#05051e" stroke="#001d48"></path><path d="M1920 176L1855 196L1849 272Z" fill="#03041b" stroke="#001d48"></path><path d="M1849 272L1855 196L1754 293Z" fill="#030419" stroke="#001d48"></path><path d="M1920 525L1920 415L1887 497Z" fill="#03041b" stroke="#001d48"></path><path d="M0 960L85 1036L93 995Z" fill="#03041a" stroke="#001d48"></path><path d="M1855 196L1816 102L1692 259Z" fill="#05051e" stroke="#001d48"></path><path d="M85 1036L103 1080L120 1080Z" fill="#04051c" stroke="#001d48"></path><path d="M120 1080L103 1080L547 1084Z" fill="#05051d" stroke="#001d48"></path><path d="M1920 857L1920 779L1774 785Z" fill="#04051c" stroke="#001d48"></path><path d="M1889 726L1920 779L1920 643Z" fill="#05051d" stroke="#001d48"></path><path d="M0 261L125 255L0 173Z" fill="#020318" stroke="#001d48"></path><path d="M0 1080L97 1079L85 1036Z" fill="#05051d" stroke="#001d48"></path><path d="M85 1036L97 1079L103 1080Z" fill="#04041c" stroke="#001d48"></path><path d="M1920 415L1920 325L1849 272Z" fill="#04041c" stroke="#001d48"></path><path d="M1813 0L1794 0L1816 102Z" fill="#030419" stroke="#001d48"></path><path d="M1920 325L1920 324L1849 272Z" fill="#03041b" stroke="#001d48"></path><path d="M547 1084L1818 1080L1665 1080Z" fill="#03041b" stroke="#001d48"></path><path d="M1665 1080L1818 1080L1724 1031Z" fill="#020318" stroke="#001d48"></path><path d="M1783 994L1920 857L1711 903Z" fill="#03041b" stroke="#001d48"></path><path d="M0 733L0 892L123 878Z" fill="#04051c" stroke="#001d48"></path><path d="M0 173L125 255L165 169Z" fill="#010216" stroke="#001d48"></path><path d="M1920 324L1919 307L1849 272Z" fill="#010216" stroke="#001d48"></path><path d="M1920 1027L1920 857L1783 994Z" fill="#04041c" stroke="#001d48"></path><path d="M220 -7L113 0L192 0Z" fill="#020317" stroke="#001d48"></path><path d="M192 0L113 0L234 73Z" fill="#03041b" stroke="#001d48"></path><path d="M1813 0L1816 102L1920 0Z" fill="#05051d" stroke="#001d48"></path><path d="M1816 102L1794 0L1751 45Z" fill="#030419" stroke="#001d48"></path><path d="M1751 45L1794 0L1610 0Z" fill="#010216" stroke="#001d48"></path><path d="M1610 0L1794 0L1415 -4Z" fill="#03041b" stroke="#001d48"></path><path d="M0 892L0 944L123 878Z" fill="#010216" stroke="#001d48"></path><path d="M0 944L0 960L93 995Z" fill="#03041a" stroke="#001d48"></path><path d="M113 0L0 173L165 169Z" fill="#020317" stroke="#001d48"></path><path d="M1920 157L1816 102L1855 196Z" fill="#03041a" stroke="#001d48"></path><path d="M1794 0L1813 0L1415 -4Z" fill="#030419" stroke="#001d48"></path><path d="M1920 324L1920 176L1919 307Z" fill="#010215" stroke="#001d48"></path><path d="M1919 307L1920 176L1849 272Z" fill="#010215" stroke="#001d48"></path><path d="M1920 176L1920 157L1855 196Z" fill="#03041b" stroke="#001d48"></path><path d="M1818 1080L1920 1027L1783 994Z" fill="#04051c" stroke="#001d48"></path><path d="M0 960L0 1080L85 1036Z" fill="#05051e" stroke="#001d48"></path><path d="M97 1079L0 1080L103 1080Z" fill="#04041c" stroke="#001d48"></path><path d="M103 1080L0 1080L547 1084Z" fill="#05051e" stroke="#001d48"></path><path d="M1818 1080L1920 1080L1920 1027Z" fill="#05051e" stroke="#001d48"></path><path d="M547 1084L1920 1080L1818 1080Z" fill="#04051c" stroke="#001d48"></path><path d="M220 -7L0 0L113 0Z" fill="#030419" stroke="#001d48"></path><path d="M113 0L0 0L0 173Z" fill="#05051e" stroke="#001d48"></path><path d="M1920 157L1920 0L1816 102Z" fill="#04051c" stroke="#001d48"></path><path d="M1813 0L1920 0L1415 -4Z" fill="#03041a" stroke="#001d48"></path></g></svg>